<?xml version="1.0" standalone="no"?>
<!DOCTYPE svg PUBLIC "-//W3C//DTD SVG 20010904//EN"
 "http://www.w3.org/TR/2001/REC-SVG-20010904/DTD/svg10.dtd">
<svg version="1.0" xmlns="http://www.w3.org/2000/svg"
 width="535.000000pt" height="95.000000pt" viewBox="0 0 535.000000 95.000000"
 preserveAspectRatio="xMidYMid meet">

<g transform="translate(0.000000,95.000000) scale(0.100000,-0.100000)"
fill="#000000" stroke="none">
<path d="M0 475 l0 -475 2675 0 2675 0 0 475 0 475 -2675 0 -2675 0 0 -475z
m240 345 c19 -19 20 -33 20 -270 0 -237 -1 -251 -20 -270 -24 -24 -67 -26 -98
-4 -22 15 -22 18 -22 274 0 256 0 259 22 274 31 22 74 20 98 -4z m2560 0 c24
-24 27 -82 4 -104 -12 -13 -41 -16 -155 -16 l-139 0 0 -40 0 -40 94 0 c109 0
126 -9 126 -70 0 -61 -17 -70 -126 -70 l-94 0 0 -90 c0 -77 -3 -93 -20 -110
-25 -25 -71 -26 -99 -2 -21 17 -21 22 -19 277 l3 259 25 13 c17 9 80 13 203
13 164 0 178 -1 197 -20z m1042 -18 c5 -5 11 -34 12 -63 2 -30 4 -57 5 -61 0
-4 24 -8 53 -10 49 -3 53 -5 58 -33 4 -16 3 -44 -2 -62 -8 -30 -11 -32 -61
-35 l-52 -3 1 -55 c0 -75 8 -90 42 -90 39 0 52 -17 52 -67 0 -58 -25 -71 -106
-54 -97 19 -124 61 -124 191 0 77 -1 80 -23 80 -33 0 -47 18 -47 61 0 55 8 69
41 69 29 0 29 1 29 58 0 60 6 75 30 85 19 8 81 0 92 -11z m-3395 -153 c7 -24
12 -24 39 2 40 37 150 20 168 -26 5 -13 12 -11 46 16 73 59 165 37 205 -48 14
-28 20 -71 23 -164 4 -119 3 -128 -17 -148 -25 -25 -68 -27 -99 -5 -20 14 -22
23 -22 117 0 113 -14 151 -53 145 -35 -5 -47 -44 -47 -155 0 -112 -6 -123 -65
-123 -59 0 -65 11 -65 123 0 107 -12 149 -43 155 -10 2 -27 -4 -38 -14 -16
-15 -19 -31 -19 -125 0 -100 -2 -109 -22 -123 -31 -22 -74 -20 -98 4 -18 18
-20 33 -20 188 0 176 5 197 45 204 38 7 77 -4 82 -23z m1378 21 l26 -10 -3
-227 c-3 -220 -4 -229 -26 -260 -58 -82 -178 -108 -276 -62 -58 27 -68 45 -51
86 21 48 47 58 94 33 22 -11 51 -20 65 -20 30 0 66 42 66 77 0 23 -1 23 -22 9
-35 -25 -107 -20 -154 10 -66 42 -89 87 -89 170 0 82 23 125 89 168 47 31 119
35 154 10 21 -14 25 -14 35 -1 21 26 52 32 92 17z m401 -6 c67 -32 105 -114
84 -179 -17 -53 -29 -57 -145 -56 -84 1 -105 -1 -105 -12 0 -36 75 -57 134
-37 50 16 81 7 96 -29 22 -55 -8 -82 -105 -95 -157 -21 -275 71 -275 214 1 93
49 166 130 199 40 16 148 13 186 -5z m967 -4 c11 -9 9 -372 -1 -382 -15 -15
-92 -12 -109 5 -14 14 -18 14 -40 0 -29 -19 -103 -19 -140 1 -66 34 -113 112
-113 186 0 74 47 152 112 186 35 18 101 18 138 -1 20 -10 31 -12 35 -4 17 26
93 32 118 9z m350 6 c80 -29 97 -71 51 -125 -28 -34 -50 -39 -80 -16 -67 51
-154 -45 -94 -105 24 -24 60 -26 102 -4 29 15 32 15 57 -4 33 -24 49 -67 35
-90 -6 -9 -30 -27 -54 -39 -84 -43 -184 -22 -248 52 -42 47 -52 74 -52 135 0
62 13 97 53 139 62 65 147 86 230 57z m775 -5 c203 -104 134 -401 -93 -401
-229 0 -295 296 -90 403 43 23 137 22 183 -2z m302 -6 c9 -11 18 -10 46 7 37
22 105 21 127 -1 15 -15 13 -66 -3 -96 -12 -23 -19 -25 -71 -23 -85 3 -89 -3
-89 -138 0 -110 -1 -114 -25 -130 -27 -17 -76 -14 -102 7 -18 16 -19 347 0
371 20 28 95 29 117 3z m332 8 c8 -10 36 -55 62 -100 26 -46 51 -83 55 -83 4
0 24 39 46 88 21 48 43 93 48 100 23 30 117 -6 117 -46 0 -17 -216 -508 -233
-529 -23 -31 -117 4 -117 43 0 9 16 53 36 100 l36 84 -86 145 c-93 156 -97
173 -48 200 36 19 66 19 84 -2z m-3716 -7 c16 -13 21 -13 35 0 11 10 33 14 65
12 45 -3 49 -5 55 -33 9 -39 9 -291 0 -330 -6 -28 -9 -30 -57 -33 -36 -2 -54
1 -63 12 -11 14 -16 13 -38 -1 -29 -19 -103 -19 -141 1 -136 71 -148 259 -24
353 36 28 52 33 96 33 29 0 61 -6 72 -14z"/>
<path d="M1601 514 c-12 -15 -21 -32 -21 -39 0 -26 41 -65 69 -65 54 0 83 61
50 103 -28 36 -70 36 -98 1z"/>
<path d="M2082 540 c-34 -32 -28 -50 16 -50 54 0 82 10 82 29 0 43 -61 55 -98
21z"/>
<path d="M2952 520 c-22 -20 -29 -64 -14 -86 9 -14 47 -34 64 -34 25 0 58 40
58 70 0 34 -34 70 -65 70 -12 0 -31 -9 -43 -20z"/>
<path d="M4200 543 c-70 -27 -68 -121 3 -146 22 -8 66 8 83 31 42 54 -22 140
-86 115z"/>
<path d="M1142 520 c-43 -41 -13 -120 45 -120 32 0 63 34 63 70 0 34 -33 70
-65 70 -12 0 -31 -9 -43 -20z"/>
</g>
</svg>
