<?xml version="1.0" standalone="no"?>
<!DOCTYPE svg PUBLIC "-//W3C//DTD SVG 20010904//EN"
 "http://www.w3.org/TR/2001/REC-SVG-20010904/DTD/svg10.dtd">
<svg version="1.0" xmlns="http://www.w3.org/2000/svg"
 width="567.000000pt" height="372.000000pt" viewBox="0 0 567.000000 372.000000"
 preserveAspectRatio="xMidYMid meet">

<g transform="translate(0.000000,372.000000) scale(0.100000,-0.100000)"
fill="#000000" stroke="none">
<path d="M0 1860 l0 -1860 2835 0 2835 0 0 1860 0 1860 -2835 0 -2835 0 0
-1860z m3051 1575 c256 -54 464 -260 530 -524 42 -167 11 -368 -78 -520 -58
-99 -172 -208 -270 -259 -156 -81 -167 -82 -743 -82 -380 0 -509 3 -518 12
-19 19 -15 66 7 78 12 6 122 10 283 11 251 0 262 1 238 17 -13 9 -39 29 -56
45 -31 27 -34 27 -166 27 -145 0 -158 4 -158 52 0 38 24 48 119 48 45 0 81 3
81 6 0 3 -9 19 -20 34 -118 165 -134 467 -36 670 13 27 21 51 18 54 -3 4 -72
6 -153 6 -121 0 -150 3 -163 16 -21 20 -20 43 1 66 14 16 35 18 208 18 l192 0
24 26 c13 15 50 46 81 70 l58 42 -152 1 c-93 1 -157 6 -165 13 -16 13 -17 60
-1 76 20 20 745 17 839 -3z m587 -384 c58 -29 141 -109 184 -175 83 -128 102
-297 52 -444 l-27 -76 38 -123 c52 -174 42 -183 -149 -128 -116 33 -127 35
-153 21 -36 -18 -169 -46 -220 -46 -65 0 -72 14 -22 45 103 66 203 184 259
309 91 201 90 398 -5 619 -9 22 -3 21 43 -2z m-3178 -1311 c19 -19 20 -33 20
-270 0 -237 -1 -251 -20 -270 -24 -24 -67 -26 -98 -4 -22 15 -22 18 -22 274 0
256 0 259 22 274 31 22 74 20 98 -4z m2560 0 c24 -24 27 -82 4 -104 -12 -13
-41 -16 -155 -16 l-139 0 0 -40 0 -40 94 0 c109 0 126 -9 126 -70 0 -61 -17
-70 -126 -70 l-94 0 0 -90 c0 -77 -3 -93 -20 -110 -24 -24 -67 -26 -98 -4 -22
15 -22 18 -22 268 0 258 2 276 40 289 8 3 95 6 193 6 164 1 178 0 197 -19z
m1024 -10 c23 -8 25 -15 28 -72 l3 -63 54 -5 c52 -5 55 -7 63 -38 6 -22 5 -41
-4 -60 -12 -24 -20 -27 -66 -30 l-52 -3 1 -47 c2 -76 11 -97 44 -100 44 -5 55
-19 55 -68 0 -59 -25 -72 -106 -55 -97 19 -124 61 -124 191 0 77 -1 80 -23 80
-33 0 -47 18 -47 61 0 55 8 69 41 69 29 0 29 1 29 58 0 31 4 62 8 68 15 23 57
29 96 14z m-1573 -161 c54 -38 79 -116 56 -172 -8 -19 -20 -38 -27 -42 -6 -4
-59 -6 -117 -6 -95 2 -104 0 -101 -16 2 -10 14 -23 28 -31 24 -12 44 -12 142
4 33 6 38 3 53 -26 20 -39 9 -75 -27 -89 -46 -17 -128 -23 -180 -12 -228 48
-222 385 8 419 62 10 127 -2 165 -29z m2074 9 c121 -64 151 -223 63 -324 -107
-121 -300 -90 -362 58 -75 179 126 357 299 266z m-3878 -9 c7 -24 15 -24 37 0
35 38 114 31 157 -13 l23 -24 38 31 c70 56 164 33 203 -49 13 -27 19 -73 23
-164 4 -120 4 -128 -17 -149 -25 -25 -68 -27 -99 -5 -20 14 -22 23 -22 121 0
112 -11 143 -50 143 -35 0 -45 -30 -50 -149 l-5 -116 -35 -8 c-22 -6 -45 -5
-62 2 -28 10 -28 11 -28 110 0 55 -4 111 -9 124 -13 34 -47 44 -72 21 -16 -15
-19 -31 -19 -125 0 -100 -2 -109 -22 -123 -31 -22 -74 -20 -98 4 -18 18 -20
33 -20 188 0 176 5 197 45 204 38 7 77 -4 82 -23z m796 2 c8 -8 16 -6 28 5 11
10 32 14 65 12 61 -4 62 -7 62 -198 0 -191 -1 -194 -62 -198 -32 -2 -54 2 -65
12 -14 13 -19 13 -35 0 -25 -18 -109 -18 -144 0 -95 50 -138 174 -93 271 21
47 80 102 119 111 15 3 32 7 37 8 16 4 77 -12 88 -23z m464 -3 c10 -8 17 -6
27 8 15 20 88 26 105 9 12 -12 16 -419 5 -450 -28 -76 -105 -127 -193 -126
-64 0 -145 30 -160 60 -12 22 11 76 38 90 16 9 29 7 60 -9 22 -11 51 -20 65
-20 30 0 66 42 66 77 0 23 -1 23 -22 9 -35 -25 -107 -20 -154 10 -65 42 -89
87 -89 169 0 58 4 76 24 106 58 86 167 118 228 67z m1347 1 c6 -5 17 -2 27 7
20 18 95 22 111 6 10 -10 12 -368 2 -383 -9 -15 -100 -10 -114 6 -11 13 -15
13 -33 0 -27 -19 -110 -19 -145 -1 -129 67 -149 246 -38 343 34 30 47 36 101
46 22 4 74 -11 89 -24z m489 17 c80 -29 97 -71 51 -125 -28 -34 -50 -39 -80
-16 -67 51 -154 -45 -94 -105 24 -24 56 -25 99 -4 31 16 34 15 59 -3 33 -25
50 -68 36 -91 -6 -9 -30 -27 -54 -39 -84 -43 -184 -22 -248 52 -42 47 -52 74
-52 135 0 62 13 97 53 139 62 65 147 86 230 57z m1254 -12 c14 -20 9 -64 -11
-96 -9 -14 -22 -17 -67 -15 -85 3 -89 -3 -89 -139 0 -110 -1 -114 -25 -130
-27 -17 -76 -14 -102 7 -16 14 -19 339 -3 370 8 15 21 19 59 19 30 0 53 -5 61
-14 10 -13 16 -12 43 5 40 25 114 21 134 -7z m155 9 c9 -10 37 -55 63 -100 26
-46 50 -83 54 -83 4 0 24 39 46 88 21 48 43 93 48 100 24 31 117 -6 117 -46 0
-17 -215 -508 -233 -529 -23 -31 -117 4 -117 43 0 9 16 53 36 100 l36 84 -86
145 c-94 155 -98 173 -48 200 36 19 66 19 84 -2z m-2878 -1339 c9 -3 16 -10
16 -15 0 -6 -9 -5 -21 1 -28 15 -69 4 -69 -18 0 -12 14 -23 42 -32 45 -16 59
-40 38 -65 -19 -23 -100 -17 -100 6 0 6 9 5 21 -1 28 -15 69 -4 69 18 0 12
-14 23 -42 32 -45 16 -59 40 -38 65 13 15 56 20 84 9z m66 -29 c0 -35 0 -35
45 -35 45 0 45 0 45 35 0 19 5 35 10 35 6 0 10 -32 10 -75 0 -43 -4 -75 -10
-75 -5 0 -10 16 -10 35 0 35 0 35 -45 35 -45 0 -45 0 -45 -35 0 -19 -4 -35
-10 -35 -6 0 -10 32 -10 75 0 43 4 75 10 75 6 0 10 -16 10 -35z m235 -16 c36
-70 46 -99 35 -99 -5 0 -12 9 -15 20 -9 29 -91 29 -100 0 -3 -11 -10 -20 -15
-20 -5 0 -2 17 7 38 22 53 53 112 58 112 3 0 16 -23 30 -51z m169 35 c21 -20
20 -30 -3 -53 -18 -18 -18 -19 0 -42 20 -26 24 -39 11 -39 -4 0 -16 13 -25 30
-12 20 -26 30 -43 30 -20 0 -24 -5 -24 -30 0 -16 -4 -30 -10 -30 -6 0 -10 32
-10 75 l0 75 44 0 c27 0 51 -6 60 -16z m109 9 c-40 -4 -43 -6 -43 -34 0 -27 3
-29 43 -31 l42 -1 -42 -4 c-40 -4 -43 -6 -43 -33 0 -27 3 -29 43 -33 40 -3 40
-4 -10 -5 l-53 -2 0 75 0 75 53 -2 c50 -1 50 -2 10 -5z m206 -30 c33 -66 50
-113 41 -113 -5 0 -12 9 -15 20 -9 29 -91 29 -100 0 -3 -11 -11 -20 -16 -20
-5 0 -3 15 5 32 8 18 22 52 33 75 10 24 21 43 25 43 4 0 16 -17 27 -37z m229
25 c17 -17 15 -58 -3 -64 -13 -5 -12 -11 6 -40 11 -19 16 -34 10 -34 -5 0 -18
14 -28 30 -13 23 -24 30 -43 28 -20 -2 -25 -8 -25 -30 1 -16 -3 -28 -7 -28 -4
0 -8 34 -8 75 l0 75 43 0 c24 0 48 -5 55 -12z m59 -100 c-2 -24 -4 -7 -4 37 0
44 2 63 4 43 2 -21 2 -57 0 -80z m153 92 c27 -27 26 -77 -2 -107 -16 -17 -32
-23 -65 -23 l-43 0 0 75 0 75 45 0 c32 0 51 -6 65 -20z m113 13 c-38 -4 -43
-7 -43 -28 0 -17 7 -26 23 -29 12 -3 31 -7 42 -9 11 -3 1 -5 -22 -6 -41 -1
-43 -3 -43 -30 0 -28 3 -30 43 -34 l42 -4 -47 -1 c-51 -2 -50 -3 -50 63 0 8 0
31 1 50 l1 35 48 -2 47 -1 -42 -4z"/>
<path d="M2765 3162 c-207 -71 -334 -285 -291 -490 30 -142 110 -248 237 -313
56 -28 76 -33 164 -37 83 -3 110 -1 158 16 174 62 282 201 295 378 14 204
-106 380 -304 448 -63 21 -193 20 -259 -2z m201 -261 c63 -29 89 -72 89 -151
0 -52 -5 -72 -23 -98 -64 -89 -195 -95 -265 -13 -74 89 -47 215 57 262 52 23
90 23 142 0z"/>
<path d="M2302 1460 c-34 -32 -28 -50 16 -50 54 0 82 10 82 29 0 43 -61 55
-98 21z"/>
<path d="M4420 1463 c-70 -27 -68 -121 3 -146 22 -8 66 8 83 31 42 54 -22 140
-86 115z"/>
<path d="M1362 1440 c-43 -41 -13 -120 45 -120 32 0 63 34 63 70 0 34 -33 70
-65 70 -12 0 -31 -9 -43 -20z"/>
<path d="M1821 1434 c-12 -15 -21 -32 -21 -39 0 -27 41 -65 70 -65 29 0 70 38
70 65 0 27 -41 65 -70 65 -19 0 -36 -9 -49 -26z"/>
<path d="M3172 1440 c-43 -40 -14 -120 43 -120 29 0 65 40 65 73 0 31 -35 67
-65 67 -12 0 -31 -9 -43 -20z"/>
<path d="M2548 195 c-17 -43 -12 -50 31 -43 20 3 20 4 2 43 l-17 39 -16 -39z"/>
<path d="M2680 209 c0 -29 2 -30 37 -27 65 5 56 57 -9 58 -25 0 -28 -4 -28
-31z"/>
<path d="M3046 212 c-3 -5 -10 -21 -15 -36 -10 -25 -9 -26 24 -26 33 0 34 0
23 30 -11 33 -24 45 -32 32z"/>
<path d="M3229 238 c0 -2 -3 -15 -5 -30 -4 -27 -3 -28 36 -28 39 0 41 1 38 28
-2 22 -8 28 -35 30 -18 2 -33 2 -34 0z"/>
<path d="M3430 175 c0 -61 1 -65 23 -65 39 0 67 27 67 65 0 38 -28 65 -67 65
-22 0 -23 -4 -23 -65z"/>
</g>
</svg>
